# xmcd CD database file
# Copyright (C) 1993-1996 Ti Kan
#
# Track frame offsets:
# 150
# 11722
# 22727
# 35012
# 48837
# 61215
# 71147
# 82447
# 95032
# 108750
#
# Disc length: 1650 seconds
#
# Revision: 0
# Processed by: cddbd v1.4b41PL1 Copyright (c) Steve Scherf et al.
# Submitted via: inCDius 1.1b5
#
DISCID=8106700a
DTITLE=Ray Price - Collectors' Choice
DYEAR=1900
DGENRE=
TTITLE0=If You're Ever Lonely Darling
TTITLE1=I Saw My Castles Fall Today
TTITLE2=Talk To Your Heart
TTITLE3=I Know I'll Never Win Your Love Again
TTITLE4=Don't Let The Stars Get In Your Eyes
TTITLE5=That's What I Get For Loving You
TTITLE6=Oh Yes Darling
TTITLE7=Sweet Little Miss Blue Eyes
TTITLE8=Let Me Talk To You
TTITLE9=Four Walls
EXTD=
EXTT0=
EXTT1=
EXTT2=
EXTT3=
EXTT4=
EXTT5=
EXTT6=
EXTT7=
EXTT8=
EXTT9=
PLAYORDER=
